# AST/ASF file generated using VICON BodyLanguage
# -----------------------------------------------
:version 1.10
:name VICON
:units
  mass 1.0
  length 0.45
  angle deg
:documentation
   .ast/.asf automatically generated from VICON data using
   VICON BodyBuilder and BodyLanguage model FoxedUp or BRILLIANT.MOD
:root
   order TX TY TZ RX RY RZ
   axis XYZ
   position 0 0 0  
   orientation 0 0 0 
:bonedata
  begin
     id 1 
     name lhipjoint
     direction 0.575328 -0.747301 0.332475 
     length 2.40933 
     axis 0 0 0  XYZ
  end
  begin
     id 2 
     name lfemur
     direction 0.34202 -0.939693 0  
     length 7.31453  
     axis 0 0 20  XYZ
    dof rx ry rz
    limits (-160.0 20.0)
           (-70.0 70.0)
           (-60.0 70.0)
  end
  begin
     id 3 
     name ltibia
     direction 0.34202 -0.939693 0   
     length 7.82185   
     axis 0 0 20   XYZ
    dof rx
    limits (-10.0 170.0)
  end
  begin
     id 4 
     name lfoot
     direction 0.0795993 -0.218697 0.972541   
     length 2.19173   
     axis -90 7.62852e-016 20   XYZ
    dof rx rz
    limits (-45.0 90.0)
           (-70.0 20.0)
  end
  begin
     id 5 
     name ltoes
     direction 1.53537e-011 -4.21894e-011 1   
     length 1.10023   
     axis -90 7.62852e-016 20   XYZ
    dof rx
    limits (-90.0 20.0)
  end
  begin
     id 6 
     name rhipjoint
     direction -0.513884 -0.783789 0.348708   
     length 2.29716  
     axis 0 0 0  XYZ 
  end
  begin
     id 7 
     name rfemur
     direction -0.34202 -0.939693 0   
     length 7.59573   
     axis 0 0 -20   XYZ
    dof rx ry rz
    limits (-160.0 20.0)
           (-70.0 70.0)
           (-70.0 60.0)
  end
  begin
     id 8 
     name rtibia
     direction -0.34202 -0.939693 0   
     length 7.66402   
     axis 0 0 -20   XYZ
    dof rx
    limits (-10.0 170.0)
 end
 begin
     id 9 
     name rfoot
     direction -0.137793 -0.378584 0.915253   
     length 2.27056  
     axis -90 -7.62852e-016 -20   XYZ
    dof rx rz
    limits (-45.0 90.0)
           (-20.0 70.0)
  end
  begin
     id 10 
     name rtoes
     direction -1.53493e-011 -4.22159e-011 1   
     length 1.11766   
     axis -90 -7.62852e-016 -20   XYZ
    dof rx
    limits (-90.0 20.0)
  end
  begin
     id 11 
     name lowerback
     direction -0.00732775 0.998356 -0.05685   
     length 2.16513   
     axis 0 0 0   XYZ
    dof rx ry rz
    limits (-20.0 45.0)
           (-30.0 30.0)
           (-30.0 30.0)
  end
  begin
     id 12 
     name upperback
     direction 0.0218081 0.999627 -0.0164647   
     length 2.16755   
     axis 0 0 0   XYZ
    dof rx ry rz
    limits (-20.0 45.0)
           (-30.0 30.0)
           (-30.0 30.0)
  end
  begin
     id 13 
     name thorax
     direction 0.02365 0.999661 0.0108914   
     length 2.16932   
     axis 0 0 0   XYZ
    dof rx ry rz
    limits (-20.0 45.0)
           (-30.0 30.0)
           (-30.0 30.0)
  end
  begin
     id 14 
     name lowerneck
     direction -0.0523929 0.978385 0.200044   
     length 1.63877   
     axis 0 0 0   XYZ
    dof rx ry rz
    limits (-20.0 45.0)
           (-30.0 30.0)
           (-30.0 30.0)
  end
  begin
     id 15 
     name upperneck
     direction 0.0448674 0.981321 -0.187074   
     length 1.69014   
     axis 0 0 0   XYZ
    dof rx ry rz
    limits (-20.0 45.0)
           (-30.0 30.0)
           (-30.0 30.0)
  end
  begin
     id 16
     name head
     direction 0.0199089 0.996118 -0.0857429  
     length 1.70094  
     axis 0 0 0   XYZ
    dof rx ry rz
    limits (-20.0 45.0)
           (-30.0 30.0)
           (-30.0 30.0)
  end
  begin
     id 17 
     name lclavicle
     direction 0.940366 0.30191 -0.156722  
     length 3.37521  
     axis 0 0 0   XYZ
    dof ry rz
    limits (-20.0 10.0)
           (0.0 20.0)
  end
  begin
     id 18 
     name lhumerus
     direction 1 -4.4897e-011 -1.7911e-027   
     length 5.25287   
     axis 180 -30 -90   XYZ
    dof rx ry rz
    limits (-60.0 90.0)
           (-90.0 90.0)
           (-90.0 90.0)
  end
  begin
     id 19
     name lradius
     direction 1 -4.48951e-011 1.04424e-027   
     length 3.51014   
     axis 180 -30 -90   XYZ
    dof rx
    limits (-10.0 170.0)
  end
  begin
     id 20
     name lwrist
     direction 1 -4.48997e-011 -9.5942e-028   
     length 1.75507   
     axis 8.48502e-016 90 90   XYZ
    dof ry
    limits (-180.0 0.0)
 end
  begin
     id 21 
     name lhand
     direction 1 -4.48831e-011 -1.90777e-027   
     length 0.706179   
     axis 1.22306e-015 90 90   XYZ
    dof rx rz
    limits (-90.0 90.0)
           (-45.0 45.0)
  end
  begin
     id 22 
     name lfingers
     direction 1 -4.49108e-011 -3.85244e-027   
     length 0.569339   
     axis 2.44611e-015 90 90   XYZ
    dof rx
    limits (0.0 90.0)
  end
  begin
     id 23
     name lthumb
     direction 0.707107 -6.34953e-011 0.707107   
     length 0.817461   
     axis -90 45 -1.62303e-014   XYZ
    dof rx rz
    limits (-45.0 45.0)
           (-45.0 45.0)
  end
  begin
     id 24 
     name rclavicle
     direction -0.905329 0.382405 -0.184787   
     length 3.30787  
     axis 0 0 0   XYZ 
    dof ry rz
    limits (-10.0 20.0)
           (-20.0 0.0)
  end
  begin
     id 25 
     name rhumerus
     direction -1 -4.48953e-011 -9.15316e-029  
     length 5.28721   
     axis 180 30 90   XYZ
    dof rx ry rz
    limits (-90.0 60.0)
           (-90.0 90.0)
           (-90.0 90.0)
  end
  begin
     id 26 
     name rradius
     direction -1 -4.48987e-011 9.37824e-028   
     length 3.50544   
     axis 180 30 90   XYZ
    dof rx
    limits (-10.0 170.0)
  end
  begin
     id 27 
     name rwrist
     direction -1 -4.48967e-011 -9.58414e-028   
     length 1.75272   
     axis 8.48502e-016 -90 -90   XYZ
    dof ry
    limits (-180.0 0.0)
  end
  begin
     id 28
     name rhand
     direction -1 -4.48904e-011 -1.91266e-027   
     length 0.884996   
     axis 1.22306e-015 -90 -90   XYZ
    dof rx rz
    limits (-90.0 90.0)
           (-45.0 45.0)
  end
  begin
     id 29
     name rfingers
     direction -1 -4.4909e-011 -3.85015e-027   
     length 0.713507   
     axis 2.44611e-015 -90 -90   XYZ
    dof rx
    limits (0.0 90.0)
  end
  begin
     id 30
     name rthumb
     direction -0.707107 -6.34853e-011 0.707107   
     length 1.02446   
     axis -90 -45 1.62303e-014   XYZ
    dof rx rz
    limits (-45.0 45.0)
           (-45.0 45.0)
  end
:hierarchy
  begin
    root lhipjoint rhipjoint lowerback
    lhipjoint lfemur
    lfemur ltibia
    ltibia lfoot
    lfoot ltoes
    rhipjoint rfemur
    rfemur rtibia
    rtibia rfoot
    rfoot rtoes
    lowerback upperback
    upperback thorax
    thorax lowerneck lclavicle rclavicle
    lowerneck upperneck
    upperneck head
    lclavicle lhumerus
    lhumerus lradius
    lradius lwrist
    lwrist lhand lthumb
    lhand lfingers
    rclavicle rhumerus
    rhumerus rradius
    rradius rwrist
    rwrist rhand rthumb
    rhand rfingers
  end

#!OML:ASF F:\twosubjects\two\Thursday\Session 1\justin.ASF
:FULLY-SPECIFIED
:DEGREES
146
root 3.08942 17.3206 -8.04279 -171.04 -10.236 175.08
lowerback -2.6926 -1.81593 -8.73154
upperback -1.28814 -2.28245 -0.261847
thorax 0.498544 -1.15191 4.54552
lowerneck -21.5933 -5.47995 -10.9083
upperneck 20.3753 -6.42559 8.57661
head 10.7739 -2.86058 3.87745
rclavicle -4.3026e-015 -4.05024e-015
rhumerus 7.41752 -5.19155 -58.7642
rradius 50.7008
rwrist -21.0912
rhand 9.30137 -11.8986
rfingers 7.12502
rthumb 34.4634 -38.5783
lclavicle -4.3026e-015 -4.05024e-015
lhumerus -17.7141 -11.2632 84.5096
lradius 49.1856
lwrist -1.26601
lhand -8.07696 34.436
lfingers 7.12502
lthumb 17.8348 63.6382
rfemur -39.9624 -7.91561 18.4296
rtibia 31.7474
rfoot -12.9019 -9.01023
rtoes -13.5168
lfemur 14.3814 1.37543 -25.3777
ltibia 9.16071
lfoot -12.818 -7.82787
ltoes -21.6167
147
root 3.11028 17.3289 -8.24928 -171.241 -10.2092 175.533
lowerback -2.56298 -1.84793 -8.50395
upperback -1.3633 -2.34067 -0.0593111
thorax 0.356664 -1.17007 4.63247
lowerneck -21.5318 -5.3965 -11.2138
upperneck 20.5444 -6.3092 8.84553
head 10.8323 -2.80795 4.05077
rclavicle -1.83992e-015 9.58981e-015
rhumerus 5.21652 -4.17641 -59.1748
rradius 49.9968
rwrist -20.0568
rhand 9.66676 -11.9059
rfingers 7.12502
rthumb 34.8102 -38.5061
lclavicle -1.83992e-015 9.58981e-015
lhumerus -18.6549 -10.0472 84.641
lradius 47.2851
lwrist -1.90562
lhand -7.74228 34.5348
lfingers 7.12502
lthumb 18.1568 63.7073
rfemur -39.5294 -7.13993 18.7951
rtibia 32.1471
rfoot -11.9196 -8.64111
rtoes -10.1142
lfemur 14.176 1.18706 -24.6578
ltibia 10.8683
lfoot -12.5964 -7.95238
ltoes -24.147
148
root 3.13078 17.3502 -8.45435 -171.343 -10.3015 176.106
lowerback -2.5478 -1.89296 -8.07742
upperback -1.36556 -2.40439 0.0959347
thorax 0.346251 -1.19935 4.55301
lowerneck -21.9774 -5.38922 -11.0105
upperneck 20.8637 -6.32921 8.7872
head 11.0259 -2.80054 3.99433
rclavicle -1.96145e-015 5.46658e-015
rhumerus 3.09261 -3.69912 -59.8922
rradius 49.2954
rwrist -18.6357
rhand 10.1605 -11.7444
rfingers 7.12502
rthumb 35.2786 -38.235
lclavicle -1.96145e-015 5.46658e-015
lhumerus -19.2082 -9.08025 84.5523
lradius 45.0634
lwrist -2.49271
lhand -7.20968 35.0509
lfingers 7.12502
lthumb 18.6691 64.175
rfemur -39.228 -6.32626 19.1314
rtibia 32.3858
rfoot -9.57443 -8.34862
rtoes -8.6999
lfemur 13.8991 0.70462 -23.8215
ltibia 12.5717
lfoot -12.045 -8.44952
ltoes -25.0967
149
root 3.14835 17.3684 -8.66678 -171.348 -10.4218 176.516
lowerback -2.72343 -1.95702 -7.81097
upperback -1.36509 -2.47635 0.221901
thorax 0.450701 -1.23842 4.52543
lowerneck -21.9856 -5.45037 -10.6548
upperneck 20.6708 -6.43538 8.50651
head 10.9445 -2.84793 3.80906
rclavicle -4.33925e-014 -6.31141e-015
rhumerus 0.925691 -3.30228 -60.5584
rradius 48.5099
rwrist -16.8609
rhand 10.7595 -11.2975
rfingers 7.12502
rthumb 35.8463 -37.6516
lclavicle -4.33925e-014 -6.31141e-015
lhumerus -19.9431 -8.07246 84.4589
lradius 42.9438
lwrist -3.08488
lhand -7.15511 35.8155
lfingers 7.12502
lthumb 18.7216 64.9345
rfemur -38.9043 -5.58023 19.2802
rtibia 32.5029
rfoot -8.00384 -8.15796
rtoes -6.50771
lfemur 13.3641 0.0169917 -23.2385
ltibia 14.6224
lfoot -11.3249 -8.73855
ltoes -26.6806
150
root 3.16997 17.3802 -8.87466 -171.469 -10.3607 176.841
lowerback -2.71275 -1.94738 -7.74702
upperback -1.3834 -2.46374 0.376392
thorax 0.42847 -1.22918 4.65164
lowerneck -21.9433 -5.55336 -10.6378
upperneck 20.6346 -6.56258 8.41371
head 10.9331 -2.91559 3.74982
rclavicle 9.76685e-015 -6.21202e-016
rhumerus -1.29359 -2.79687 -61.125
rradius 47.2913
rwrist -14.6071
rhand 11.2451 -10.3854
rfingers 7.12502
rthumb 36.3063 -36.626
lclavicle 9.76685e-015 -6.21202e-016
lhumerus -20.8494 -6.79215 84.4481
lradius 40.9061
lwrist -3.94509
lhand -7.14928 36.7599
lfingers 7.12502
lthumb 18.7272 65.8784
rfemur -38.4794 -4.49249 19.2962
rtibia 32.6831
rfoot -7.07121 -8.13596
rtoes -4.45462
lfemur 12.8104 -0.502383 -22.7694
ltibia 16.8535
lfoot -10.5675 -8.87421
ltoes -28.9117
151
root 3.19367 17.3978 -9.07054 -171.583 -10.2521 177.33
lowerback -2.54207 -1.86356 -7.49039
upperback -1.43793 -2.37089 0.563381
thorax 0.262032 -1.17356 4.71304
lowerneck -22.26 -5.71254 -10.9623
upperneck 20.9492 -6.73418 8.64702
head 11.15 -2.98822 3.86332
rclavicle -3.32234e-014 4.09993e-015
rhumerus -3.55146 -2.82505 -61.8216
rradius 45.7383
rwrist -11.6627
rhand 11.9779 -9.49208
rfingers 7.12502
rthumb 36.9999 -35.5566
lclavicle -3.32234e-014 4.09993e-015
lhumerus -21.4854 -5.45015 84.4321
lradius 38.5621
lwrist -5.04834
lhand -7.08387 37.7899
lfingers 7.12502
lthumb 18.7902 66.9023
rfemur -38.2189 -3.46822 19.6012
rtibia 33.1037
rfoot -6.55473 -8.29636
rtoes -1.29329
lfemur 12.1665 -0.820165 -22.0581
ltibia 19.025
lfoot -9.52579 -9.3189
ltoes -30.0496
152
root 3.20692 17.4055 -9.27257 -171.714 -10.1337 177.788
lowerback -2.53457 -1.80316 -7.10695
upperback -1.34197 -2.28904 0.70574
thorax 0.338615 -1.13626 4.64699
lowerneck -22.5844 -5.86065 -11.457
upperneck 20.875 -6.87443 9.22701
head 11.2436 -3.01012 4.1354
rclavicle 7.00056e-015 2.29224e-015
rhumerus -5.55878 -3.0639 -62.4891
rradius 44.0945
rwrist -9.04107
rhand 12.5996 -9.33243
rfingers 7.12502
rthumb 37.5876 -35.2427
lclavicle 7.00056e-015 2.29224e-015
lhumerus -21.8215 -4.15217 84.2757
lradius 36.0022
lwrist -5.95113
lhand -7.29002 37.8614
lfingers 7.12502
lthumb 18.5919 66.993
rfemur -37.9209 -2.96489 20.1214
rtibia 33.7493
rfoot -6.28842 -8.45543
rtoes 1.54816
lfemur 11.4631 -1.17111 -21.4619
ltibia 21.2595
lfoot -8.08447 -9.76716
ltoes -30.564
153
root 3.20754 17.4012 -9.49165 -171.929 -9.87592 177.879
lowerback -2.64436 -1.7478 -6.96636
upperback -1.17071 -2.19911 0.676931
thorax 0.559851 -1.10218 4.53466
lowerneck -22.7245 -5.87609 -11.6132
upperneck 20.6387 -6.91051 9.6502
head 11.2107 -2.98051 4.30931
rclavicle -2.06596e-014 1.03989e-014
rhumerus -7.62857 -3.22236 -63.1245
rradius 42.3658
rwrist -6.58548
rhand 12.8833 -8.73598
rfingers 7.12502
rthumb 37.8556 -34.5743
lclavicle -2.06596e-014 1.03989e-014
lhumerus -22.3161 -2.67021 83.8882
lradius 33.4411
lwrist -6.96763
lhand -7.42071 37.6252
lfingers 7.12502
lthumb 18.4662 66.7687
rfemur -37.3451 -3.01833 20.4726
rtibia 34.5244
rfoot -6.21876 -8.01865
rtoes 2.20514
lfemur 10.7429 -1.04696 -21.3075
ltibia 23.6392
lfoot -6.53805 -10.3698
ltoes -32.7478
154
root 3.21152 17.407 -9.70779 -172.124 -9.5145 177.787
lowerback -2.65108 -1.62965 -7.05774
upperback -1.10928 -2.03586 0.616042
thorax 0.606728 -1.02352 4.52823
lowerneck -22.4652 -5.82308 -11.9124
upperneck 20.3791 -6.89332 10.1978
head 11.099 -2.94008 4.56517
rclavicle -1.28666e-014 -1.40143e-014
rhumerus -9.93424 -3.50986 -63.6133
rradius 40.3961
rwrist -3.46623
rhand 12.9473 -7.08482
rfingers 7.12502
rthumb 37.9161 -32.9068
lclavicle -1.28666e-014 -1.40143e-014
lhumerus -23.1213 -0.831963 83.4182
lradius 31.0497
lwrist -8.49941
lhand -7.74583 37.4639
lfingers 7.12502
lthumb 18.1534 66.6368
rfemur -36.7484 -3.06614 20.6124
rtibia 35.3298
rfoot -6.52093 -7.13359
rtoes 2.73636
lfemur 9.78567 -0.243621 -21.2174
ltibia 25.9961
lfoot -4.79618 -11.5743
ltoes -35.5856
155
root 3.22383 17.4229 -9.9137 -172.235 -9.28973 177.815
lowerback -2.65156 -1.58094 -7.14065
upperback -1.04384 -1.96401 0.708739
thorax 0.671352 -0.990303 4.67328
lowerneck -21.9622 -5.81646 -12.7908
upperneck 19.7348 -6.85181 11.2068
head 10.8404 -2.88348 5.08834
rclavicle -6.57038e-015 -3.32964e-015
rhumerus -11.9578 -3.73714 -63.9454
rradius 38.0782
rwrist -0.196066
rhand 11.834 -5.47067
rfingers 7.12502
rthumb 36.8637 -31.5703
lclavicle -6.57038e-015 -3.32964e-015
lhumerus -23.9861 1.40978 82.9185
lradius 28.9628
lwrist -10.0826
lhand -8.55008 36.765
lfingers 7.12502
lthumb 17.3795 66.008
rfemur -36.3012 -2.87153 20.7705
rtibia 36.0858
rfoot -7.0738 -6.49807
rtoes 4.84248
lfemur 8.63867 0.249468 -20.9756
ltibia 28.2877
lfoot -2.06113 -12.8692
ltoes -35.4914
